<!--version="1.0" standalone="no"--><!DOCTYPE html PUBLIC "-//W3C//DTD SVG 20010904//EN" "http://www.w3.org/TR/2001/REC-SVG-20010904/DTD/svg10.dtd"><svg version="1.0" xmlns="http://www.w3.org/2000/svg" width="1365.333" height="1365.333" viewBox="0 0 1024 1024" preserveAspectRatio="xMidYMid meet"><g transform="translate(0.000000,1024.000000) scale(0.100000,-0.100000)" fill="#FDA523" stroke="none"><path d="M4805 8264c-16-2-82-11-145-20-462-62-920-235-1310-496-198-131-338-246-510-418-168-167-278-301-400-486-538-819-658-1902-313-2828 383-1028 1286-1798 2363-2015 357-72 795-81 1150-25 713 113 1392 486 1866 1025 416 473 680 1029 775 1634 31 197 38 608 14 815-30 260-101 558-186 775-45 115-170 375-179 375-4 0-71-62-150-138l-143-138 51-129c154-395 214-697 214-1095 0-208-13-350-47-525-164-831-706-1538-1475-1925-139-70-362-160-485-195-92-27-304-75-328-75-11 0-16 23-21 87-46 574-212 1070-514 1538-222 343-539 665-882 895-493 330-1076 528-1672 566-75 5-108 11-108 19 0 26 32 195 57 300 64 273 200 583 361 825 287 430 639 739 1097 965 569 280 1155 353 1799 224 419-84 837-277 1213-561 61-46 98-68 109-64 24 9 282 239 283 253 1 12-141 137-244 214-171 129-400 263-604 351-174 76-453 169-604 203-249 55-370 67-697 70-168 2-318 1-335-1zM2545 5089c221-22 523-93 745-176 562-209 1072-601 1389-1068 235-345 383-713 451-1122 19-114 40-299 40-351v-25l-167 7c-150 6-369 29-380 40-3 2-11 58-18 123-46 386-161 704-370 1018-82 124-232 303-321 384-371 339-788 543-1275 625-83 15-168 26-190 26-26 0-41 5-47 18-18 33-43 228-49 375l-6 147 44-5c24-3 94-10 154-16zm233-959c282-74 554-218 797-422 307-258 528-639 621-1065 36-168 42-159-73-117-696 252-1334 865-1597 1536-25 65-46 119-46 121 0 9 194-26 298-53z"/><path d="M7897 7606c-185-67-296-155-729-584l-337-334-303 66c-167 36-460 99-653 141-192 42-454 98-581 125-126 28-240 50-252 50-37 0-119-48-174-100-47-46-50-51-37-70 8-12 111-76 229-142s352-197 520-291c331-185 653-367 659-373 6-5-26-44-194-231-89-98-253-285-365-417l-205-238-40 5c-22 3-147 22-279 42-131 20-253 34-270 31-37-7-130-85-152-128-15-29-15-32 8-53 21-22 387-241 443-267 33-15 32-29-12-100-87-140-16-200 141-118 33 16 63 27 67 23 3-5 61-105 129-223 138-244 163-280 191-280 25 0 133 101 149 140 10 23 6 73-24 287-20 142-38 268-41 279-4 18 29 51 182 185 166 145 596 525 663 586 14 13 27 23 30 23 6 0 252-441 455-815 166-307 228-420 247-447 38-54 76-32 172 101 25 35 46 74 46 87 0 23-30 179-150 789-38 193-92 469-121 614l-51 264 225 226c413 416 516 533 616 699 125 208 135 397 25 452-51 25-150 24-227-4z"/></g></svg>